<?xml version="1.0" standalone="no"?><!DOCTYPE svg PUBLIC "-//W3C//DTD SVG 1.1//EN" "http://www.w3.org/Graphics/SVG/1.1/DTD/svg11.dtd"><svg t="1692365026462" class="icon" viewBox="0 0 1024 1024" version="1.1" xmlns="http://www.w3.org/2000/svg" p-id="2957" xmlns:xlink="http://www.w3.org/1999/xlink" width="200" height="200"><path d="M901.850593 926.476283a48.761858 48.761858 0 0 1-48.761859 48.761859H170.422718a48.761858 48.761858 0 0 1-48.761858-48.761859V48.762834a48.761858 48.761858 0 0 1 48.761858-48.761859h418.864363a48.761858 48.761858 0 0 1 34.620919 14.140939l263.801654 263.801654a48.761858 48.761858 0 0 1 14.140939 34.620919V926.476283z" fill="#EBECF0" p-id="2958"></path><path d="M901.850593 926.476283v48.761859a48.761858 48.761858 0 0 1-48.761859 48.761858H170.422718a48.761858 48.761858 0 0 1-48.761858-48.761858v-48.761859a48.761858 48.761858 0 0 0 48.761858 48.761859h682.666016a48.761858 48.761858 0 0 0 48.761859-48.761859z" fill="#C1C7D0" p-id="2959"></path><path d="M24.137143 536.381417h975.237166v243.809291a48.761858 48.761858 0 0 1-48.761858 48.761859H72.899001a48.761858 48.761858 0 0 1-48.761858-48.761859v-243.809291z" fill="#FF8B00" p-id="2960"></path><path d="M121.66086 536.381417V438.8577l-97.523717 97.523717h97.523717zM901.850593 536.381417l0.975237-97.523717 97.036098 97.523717H901.850593z" fill="#C66A05" p-id="2961"></path><path d="M901.850593 312.564487v6.82666h-263.801654a48.761858 48.761858 0 0 1-48.761858-48.761858V0.000975a48.761858 48.761858 0 0 1 34.620919 14.140939l264.289272 263.801654a48.761858 48.761858 0 0 1 13.653321 34.620919z" fill="#C1C7D0" p-id="2962"></path><path d="M553.203306 780.190708h-35.596157l-20.47998-52.662807H433.249134L414.232009 780.190708h-37.54663l74.605643-195.047433h27.30664z m-68.266602-86.308489L462.993868 642.682268l-19.992362 53.150425zM625.858475 783.11642h-33.158064v-195.047433h33.158064z" fill="#FFFFFF" p-id="2963"></path></svg>