<?xml version="1.0" standalone="no"?><!DOCTYPE svg PUBLIC "-//W3C//DTD SVG 1.1//EN" "http://www.w3.org/Graphics/SVG/1.1/DTD/svg11.dtd"><svg t="1724143410605" class="icon" viewBox="0 0 1024 1024" version="1.1" xmlns="http://www.w3.org/2000/svg" p-id="4343" xmlns:xlink="http://www.w3.org/1999/xlink" width="200" height="200"><path d="M731.591111 252.586667c-25.031111 0-45.511111-20.48-45.511111-45.511111V61.44H179.768889c-25.031111 0-45.511111 20.48-45.511111 45.511111v811.235556c0 25.031111 20.48 45.511111 45.511111 45.511111h664.462222c25.031111 0 45.511111-20.48 45.511111-45.511111V270.791111c0-6.826667-1.137778-12.515556-3.413333-18.204444H731.591111z" fill="#F1F1F1" p-id="4344"></path><path d="M731.591111 252.586667h153.6c-2.275556-5.688889-5.688889-10.24-10.24-13.653334L712.248889 75.093333c-6.826667-7.964444-15.928889-12.515556-26.168889-13.653333v145.635556c0 25.031111 20.48 45.511111 45.511111 45.511111z" fill="#DCDCDC" p-id="4345"></path><path d="M508.586667 365.226667c25.031111 0 45.511111 6.826667 60.302222 20.48 15.928889 13.653333 23.893333 32.995556 23.893333 56.888889 0 19.342222-5.688889 35.271111-14.791111 47.786666-3.413333 4.551111-14.791111 14.791111-32.995555 30.72-7.964444 6.826667-12.515556 13.653333-17.066667 20.48-4.551111 7.964444-6.826667 17.066667-6.826667 26.168889v6.826667h-42.097778v-6.826667c0-14.791111 2.275556-27.306667 7.964445-37.546667 5.688889-11.377778 20.48-27.306667 44.373333-48.924444l6.826667-7.964444c6.826667-9.102222 11.377778-18.204444 11.377778-28.444445 0-13.653333-3.413333-23.893333-11.377778-31.857778-7.964444-7.964444-19.342222-11.377778-32.995556-11.377777-18.204444 0-30.72 5.688889-38.684444 17.066666-6.826667 9.102222-10.24 22.755556-10.24 39.822222h-42.097778c0-28.444444 7.964444-51.2 25.031111-67.128888 17.066667-18.204444 39.822222-26.168889 69.404445-26.168889z m-6.826667 228.693333c7.964444 0 15.928889 2.275556 20.48 7.964444 5.688889 5.688889 7.964444 11.377778 7.964444 20.48s-3.413333 14.791111-9.102222 20.48-12.515556 7.964444-20.48 7.964445-14.791111-2.275556-20.48-7.964445c-5.688889-5.688889-7.964444-12.515556-7.964444-20.48s2.275556-14.791111 7.964444-20.48c6.826667-5.688889 13.653333-7.964444 21.617778-7.964444z m0 0" fill="#B6B6B6" p-id="4346"></path></svg>