<?xml version="1.0" standalone="no"?><!DOCTYPE svg PUBLIC "-//W3C//DTD SVG 1.1//EN" "http://www.w3.org/Graphics/SVG/1.1/DTD/svg11.dtd"><svg t="1724656048557" class="icon" viewBox="0 0 1024 1024" version="1.1" xmlns="http://www.w3.org/2000/svg" p-id="1864" xmlns:xlink="http://www.w3.org/1999/xlink" width="200" height="200"><path d="M0 0h1024v1024H0z" fill="#FFFFFF" p-id="1865"></path><path d="M213.333333 405.333333h597.333334l85.333333 85.333334v234.666666H128V490.666667z" fill="#5200A2" p-id="1866"></path><path d="M725.333333 896H298.666667a85.333333 85.333333 0 0 1-85.333334-85.333333V213.333333a85.333333 85.333333 0 0 1 85.333334-85.333333h341.333333l170.666667 170.666667v512a85.333333 85.333333 0 0 1-85.333334 85.333333z" fill="#EEF1FF" p-id="1867"></path><path d="M128 490.666667h768v256H128z" fill="#7F2ECF" p-id="1868"></path><path d="M640 128l170.666667 170.666667h-85.333334a85.333333 85.333333 0 0 1-85.333333-85.333334z" fill="#C4C8D9" p-id="1869"></path><path d="M312.576 535.786667h30.314667v114.474666a54.762667 54.762667 0 0 1-13.802667 39.168 46.656 46.656 0 0 1-35.477333 14.464 53.973333 53.973333 0 0 1-38.122667-12.992 47.338667 47.338667 0 0 1-13.546667-37.674666l0.213334-0.682667h29.589333a27.733333 27.733333 0 0 0 5.930667 19.52 20.757333 20.757333 0 0 0 15.936 6.4 16.085333 16.085333 0 0 0 13.653333-7.573333 35.498667 35.498667 0 0 0 5.312-20.544z m137.088 122.517333a20.288 20.288 0 0 0-6.101333-15.36 59.008 59.008 0 0 0-21.333334-10.944 117.098667 117.098667 0 0 1-39.850666-20.373333 40.021333 40.021333 0 0 1-13.589334-32A41.557333 41.557333 0 0 1 384 546.304a65.621333 65.621333 0 0 1 79.594667 1.066667 45.290667 45.290667 0 0 1 14.933333 36.437333l-0.213333 0.661333h-29.482667a25.450667 25.450667 0 0 0-6.869333-19.072 26.602667 26.602667 0 0 0-19.2-6.656 24.021333 24.021333 0 0 0-17.429334 5.824 20.032 20.032 0 0 0-6.144 15.125334 17.066667 17.066667 0 0 0 6.677334 13.824 85.610667 85.610667 0 0 0 22.933333 11.456 95.850667 95.850667 0 0 1 38.122667 20.224 43.285333 43.285333 0 0 1 13.077333 32.853333 41.002667 41.002667 0 0 1-15.210667 33.578667 62.101333 62.101333 0 0 1-40.128 12.245333 67.434667 67.434667 0 0 1-42.026666-13.312 45.525333 45.525333 0 0 1-17.066667-39.637333l0.213333-0.661334h29.482667a27.370667 27.370667 0 0 0 7.914667 21.632 31.338667 31.338667 0 0 0 21.461333 6.997334 27.498667 27.498667 0 0 0 18.602667-5.568 18.858667 18.858667 0 0 0 6.421333-14.997334z m175.530667-24.725333a73.472 73.472 0 0 1-17.621334 50.474666 62.613333 62.613333 0 0 1-91.456 0 73.664 73.664 0 0 1-17.493333-50.453333v-29.866667a73.728 73.728 0 0 1 17.429333-50.389333 57.429333 57.429333 0 0 1 45.461334-19.989333 58.538667 58.538667 0 0 1 45.930666 19.989333 73.237333 73.237333 0 0 1 17.706667 50.389333z m-30.336-29.866667a53.525333 53.525333 0 0 0-8.853334-31.765333 28.458667 28.458667 0 0 0-24.469333-12.544 27.605333 27.605333 0 0 0-23.936 12.458666 54.613333 54.613333 0 0 0-8.682667 31.850667v30.058667a55.018667 55.018667 0 0 0 8.682667 32 27.733333 27.733333 0 0 0 24.170667 12.394666 28.138667 28.138667 0 0 0 24.384-12.394666 54.634667 54.634667 0 0 0 8.746666-32.106667z m177.066666 97.941333h-30.421333l-61.141333-111.808h-0.618667v111.808h-30.421333v-165.76h30.421333l61.141333 111.701334h0.618667v-111.808h30.421333z" fill="#FFFFFF" p-id="1870"></path></svg>