<?xml version="1.0" standalone="no"?><!DOCTYPE svg PUBLIC "-//W3C//DTD SVG 1.1//EN" "http://www.w3.org/Graphics/SVG/1.1/DTD/svg11.dtd"><svg t="1692364994876" class="icon" viewBox="0 0 1024 1024" version="1.1" xmlns="http://www.w3.org/2000/svg" p-id="2512" xmlns:xlink="http://www.w3.org/1999/xlink" width="200" height="200"><path d="M0 0m51.2 0l921.6 0q51.2 0 51.2 51.2l0 921.6q0 51.2-51.2 51.2l-921.6 0q-51.2 0-51.2-51.2l0-921.6q0-51.2 51.2-51.2Z" fill="#EBECF0" p-id="2513"></path><path d="M1024 921.6v51.2a51.2 51.2 0 0 1-51.2 51.2H51.2a51.2 51.2 0 0 1-51.2-51.2v-51.2a51.2 51.2 0 0 0 51.2 51.2h921.6a51.2 51.2 0 0 0 51.2-51.2z" fill="#5E6C84" p-id="2514"></path><path d="M1024 460.8v460.8a51.2 51.2 0 0 1-51.2 51.2H51.2a51.2 51.2 0 0 1-51.2-51.2V460.8z" fill="#97A0AF" p-id="2515"></path><path d="M371.2 0m17.92 0l92.16 0q17.92 0 17.92 17.92l0 15.36q0 17.92-17.92 17.92l-92.16 0q-17.92 0-17.92-17.92l0-15.36q0-17.92 17.92-17.92Z" fill="#5E6C84" p-id="2516"></path><path d="M524.8 51.2m17.92 0l92.16 0q17.92 0 17.92 17.92l0 15.36q0 17.92-17.92 17.92l-92.16 0q-17.92 0-17.92-17.92l0-15.36q0-17.92 17.92-17.92Z" fill="#5E6C84" p-id="2517"></path><path d="M371.2 102.4m17.92 0l92.16 0q17.92 0 17.92 17.92l0 15.36q0 17.92-17.92 17.92l-92.16 0q-17.92 0-17.92-17.92l0-15.36q0-17.92 17.92-17.92Z" fill="#5E6C84" p-id="2518"></path><path d="M524.8 153.6m17.92 0l92.16 0q17.92 0 17.92 17.92l0 15.36q0 17.92-17.92 17.92l-92.16 0q-17.92 0-17.92-17.92l0-15.36q0-17.92 17.92-17.92Z" fill="#5E6C84" p-id="2519"></path><path d="M371.2 204.8m17.92 0l92.16 0q17.92 0 17.92 17.92l0 15.36q0 17.92-17.92 17.92l-92.16 0q-17.92 0-17.92-17.92l0-15.36q0-17.92 17.92-17.92Z" fill="#5E6C84" p-id="2520"></path><path d="M524.8 256m17.92 0l92.16 0q17.92 0 17.92 17.92l0 15.36q0 17.92-17.92 17.92l-92.16 0q-17.92 0-17.92-17.92l0-15.36q0-17.92 17.92-17.92Z" fill="#5E6C84" p-id="2521"></path><path d="M524.8 358.4m17.92 0l92.16 0q17.92 0 17.92 17.92l0 15.36q0 17.92-17.92 17.92l-92.16 0q-17.92 0-17.92-17.92l0-15.36q0-17.92 17.92-17.92Z" fill="#5E6C84" p-id="2522"></path><path d="M371.2 409.6m17.92 0l92.16 0q17.92 0 17.92 17.92l0 15.36q0 17.92-17.92 17.92l-92.16 0q-17.92 0-17.92-17.92l0-15.36q0-17.92 17.92-17.92Z" fill="#5E6C84" p-id="2523"></path><path d="M371.2 307.2m17.92 0l92.16 0q17.92 0 17.92 17.92l0 15.36q0 17.92-17.92 17.92l-92.16 0q-17.92 0-17.92-17.92l0-15.36q0-17.92 17.92-17.92Z" fill="#5E6C84" p-id="2524"></path><path d="M467.968 795.136H307.2V768l111.616-143.872h-102.4v-33.28h153.6V614.4l-115.2 146.944h113.152zM542.72 796.16h-35.328v-204.8h35.328zM589.824 591.36h91.136a61.44 61.44 0 0 1 45.056 16.896 58.88 58.88 0 0 1 17.408 44.032 59.904 59.904 0 0 1-16.896 44.032 62.976 62.976 0 0 1-46.592 16.896H624.64v81.92h-35.328z m35.328 88.064h47.104a45.056 45.056 0 0 0 27.648-6.656 25.6 25.6 0 0 0 8.192-21.504q0-26.624-35.328-26.624h-48.128z" fill="#FFFFFF" p-id="2525"></path></svg>