<?xml version="1.0" standalone="no"?><!DOCTYPE svg PUBLIC "-//W3C//DTD SVG 1.1//EN" "http://www.w3.org/Graphics/SVG/1.1/DTD/svg11.dtd"><svg t="1692365019454" class="icon" viewBox="0 0 1024 1024" version="1.1" xmlns="http://www.w3.org/2000/svg" p-id="2813" xmlns:xlink="http://www.w3.org/1999/xlink" width="200" height="200"><path d="M901.851057 926.476283a48.761858 48.761858 0 0 1-48.761858 48.761859H170.423182a48.761858 48.761858 0 0 1-48.761858-48.761859V48.762834a48.761858 48.761858 0 0 1 48.761858-48.761859h418.376745v270.628314a48.761858 48.761858 0 0 0 48.761858 48.761858H901.851057V926.476283z" fill="#EBECF0" p-id="2814"></path><path d="M901.851057 926.476283v48.761859a48.761858 48.761858 0 0 1-48.761858 48.761858H170.423182a48.761858 48.761858 0 0 1-48.761858-48.761858v-48.761859a48.761858 48.761858 0 0 0 48.761858 48.761859h682.666017a48.761858 48.761858 0 0 0 48.761858-48.761859zM901.851057 312.564487v6.82666h-264.289272a48.761858 48.761858 0 0 1-48.761858-48.761858V0.000975a48.761858 48.761858 0 0 1 34.620919 14.140939l264.289272 263.801654a48.761858 48.761858 0 0 1 14.140939 34.620919z" fill="#C1C7D0" p-id="2815"></path><path d="M706.803624 390.095842H316.708757v390.094866h390.094867z m-273.066407 351.08538H356.205863v-78.018974h78.018973z m0-117.02846H356.205863v-78.018974h78.018973z m0-117.02846H356.205863V429.592947h78.018973z m234.05692 234.05692h-195.047433v-78.018974h195.047433z m0-117.02846h-195.047433v-78.018974h195.047433z m0-117.02846h-195.047433V429.592947h195.047433z" fill="#36B37E" p-id="2816"></path></svg>