<?xml version="1.0" standalone="no"?><!DOCTYPE svg PUBLIC "-//W3C//DTD SVG 1.1//EN" "http://www.w3.org/Graphics/SVG/1.1/DTD/svg11.dtd"><svg fill="#4E94DD" stroke="#4E94DD" t="1692258269988" class="icon" viewBox="0 0 1024 1024" version="1.1" xmlns="http://www.w3.org/2000/svg" p-id="12100" xmlns:xlink="http://www.w3.org/1999/xlink" width="200" height="200"><path d="M871.36 283.2l-194.88-208.96a32 32 0 0 0-23.36-10.24H336a32 32 0 0 0-32 32v672a32 32 0 0 0 32 32h512a32 32 0 0 0 32-32V304.96a32 32 0 0 0-8.64-21.76zM816 736h-448V128H640l176 189.76z" p-id="12101"></path><path d="M208 224h-64v704a32 32 0 0 0 32 32h512v-64h-480zM470.72 414.08l-45.44 45.12 126.4 126.4 207.04-207.04-45.44-45.44-161.6 161.92-80.96-80.96z" p-id="12102"></path></svg>